<svg version="1.1" viewBox="0.0 0.0 462.99212598425197 377.9527559055118" height="24px" width="24px" fill="none" stroke="none" stroke-linecap="square" stroke-miterlimit="10" xmlns:xlink="http://www.w3.org/1999/xlink" xmlns="http://www.w3.org/2000/svg"><clipPath id="p.0"><path d="m0 0l462.99213 0l0 377.95276l-462.99213 0l0 -377.95276z" clip-rule="nonzero"/></clipPath><g clip-path="url(#p.0)"><path fill="#000000" fill-opacity="0.0" d="m0 0l462.99213 0l0 377.95276l-462.99213 0z" fill-rule="evenodd"/><path fill="#666666" d="m169.33333 83.666664l0 166.66666l145.00002 -83.33333l-145.00002 -83.333336zm250.00002 -41.666664l0 250.0l-375.0 0l0 -250.0zm-375.0 -41.666668c-23.333332 0 -41.666664 18.333332 -41.666664 41.666668l0 250.0c0 21.666656 18.333334 41.666656 41.666664 41.666656l103.33334 0l0 41.666687l166.66667 0l0 -41.666687l105.0 0c21.666656 0 40.0 -20.0 40.0 -41.666656l1.6666565 -250.0c0 -23.333334 -20.0 -41.666668 -41.666656 -41.666668z" fill-rule="evenodd"/></g></svg>
